<?xml version="1.0" encoding="UTF-8" standalone="no"?>
<svg
   xmlns:dc="http://purl.org/dc/elements/1.1/"
   xmlns:cc="http://creativecommons.org/ns#"
   xmlns:rdf="http://www.w3.org/1999/02/22-rdf-syntax-ns#"
   xmlns:svg="http://www.w3.org/2000/svg"
   xmlns="http://www.w3.org/2000/svg"
   height="1024"
   width="1024"
   id="svg4"
   version="1.1"
   viewBox="0 0 1024 1024">
  <metadata
     id="metadata10">
    <rdf:RDF>
      <cc:Work
         rdf:about="">
        <dc:format>image/svg+xml</dc:format>
        <dc:type
           rdf:resource="http://purl.org/dc/dcmitype/StillImage" />
        <dc:title></dc:title>
      </cc:Work>
    </rdf:RDF>
  </metadata>
  <defs
     id="defs8" />
  <path
     style="fill:#233779;fill-opacity:1"
     id="path2"
     d="M 992,175.99999 H 608 c -17.67,0 -32,14.33 -32,32 v 32 c 0,17.67 14.33,32 32,32 h 384 c 17.67,0 32,-14.33 32,-32 v -32 c 0,-17.67 -14.33,-32 -32,-32 z" />
  <path
     style="fill:#233779;fill-opacity:1"
     d="m 800,896 c -35.35,0 -64,28.65 -64,64 0,35.35 28.65,64 64,64 35.35,0 64,-28.65 64,-64 0,-35.35 -28.65,-64 -64,-64 z m 0,-191.99999 c 35.35,0 64,-28.65 64,-64 0,-35.35 -28.65,-64 -64,-64 -35.35,0 -64,28.65 -64,64 0,35.35 28.65,64 64,64 z m 192,48 H 608 c -17.67,0 -32,14.33 -32,32 v 32 C 576,833.67001 590.33,848 608,848 h 384 c 17.67,0 32,-14.32999 32,-31.99999 v -32 c 0,-17.67 -14.33,-32 -32,-32 z"
     id="path817" />
  <path
     style="fill:#233779;fill-opacity:1"
     d="M 416,176 H 272 V 32 C 272,14.33 257.67,0 240,0 H 208 C 190.33,0 176,14.33 176,32 V 176 H 32 C 14.33,176 0,190.33 0,208 v 32 c 0,17.67 14.33,31.99999 32,31.99999 h 144 v 144 c 0,17.67 14.33,32 32,32 h 32 c 17.67,0 32,-14.33 32,-32 v -144 h 144 c 17.67,0 31.99995,-14.32999 31.99995,-31.99999 V 208 C 447.99995,190.33 433.67,176 416,176 Z"
     id="path828" />
  <path
     style="fill:#233779;fill-opacity:1"
     d="m 290.71998,800.00001 100.07,-100.07 c 12.28,-12.28 12.28,-32.19 0,-44.48 l -22.24,-22.24 c -12.28,-12.28 -32.19,-12.28 -44.48,0 l -100.07001,100.07 -100.07,-100.07 c -12.28,-12.28 -32.189998,-12.28 -44.479998,0 l -22.24,22.24 c -12.28,12.28 -12.28,32.19 0,44.48 L 157.27997,800.00001 57.209972,900.07 c -12.28,12.28 -12.28,32.19 0,44.48 l 22.24,22.24 c 12.28,12.28 32.199998,12.28 44.479998,0 l 100.07,-100.07 100.07001,100.07 c 12.28,12.28 32.2,12.28 44.48,0 l 22.24,-22.24 c 12.28,-12.28 12.28,-32.19 0,-44.48 z"
     id="path839" />
</svg>
